<svg width="20" height="20" viewBox="0 0 20 20" fill="none" xmlns="http://www.w3.org/2000/svg">
<path d="M0 4C0 1.79086 1.79086 0 4 0H16C18.2091 0 20 1.79086 20 4V16C20 18.2091 18.2091 20 16 20H4C1.79086 20 0 18.2091 0 16V4Z" fill="#DCEAFF"/>
<path d="M7.02688 16.2501H4.375C4.20924 16.2501 4.05027 16.1843 3.93306 16.0671C3.81585 15.9498 3.75 15.7909 3.75 15.6251V12.9732C3.75004 12.8075 3.81591 12.6485 3.93312 12.5314L12.5331 3.93324C12.6503 3.81607 12.8093 3.75024 12.975 3.75024C13.1407 3.75024 13.2997 3.81607 13.4169 3.93324L16.0669 6.58324C16.184 6.70044 16.2499 6.85938 16.2499 7.02511C16.2499 7.19084 16.184 7.34978 16.0669 7.46699L7.46875 16.067C7.35157 16.1842 7.19262 16.2501 7.02688 16.2501Z" fill="#2C7EFF"/>
<path d="M16.0673 6.58324L13.4173 3.93324C13.3001 3.81607 13.1411 3.75024 12.9754 3.75024C12.8097 3.75024 12.6507 3.81607 12.5335 3.93324L10.3223 6.14386L13.8566 9.67699L16.0673 7.46699C16.1844 7.34978 16.2503 7.19084 16.2503 7.02511C16.2503 6.85938 16.1844 6.70044 16.0673 6.58324Z" fill="white"/>
</svg>
