<svg width="24" height="24" viewBox="0 0 24 24" fill="none" xmlns="http://www.w3.org/2000/svg">
<path d="M16 8.5H14C13.4696 8.5 12.9609 8.71071 12.5858 9.08579C12.2107 9.46086 12 9.96957 12 10.5C12 9.96957 11.7893 9.46086 11.4142 9.08579C11.0391 8.71071 10.5304 8.5 10 8.5H8C7.46957 8.5 6.96086 8.71071 6.58579 9.08579C6.21071 9.46086 6 9.96957 6 10.5V12.5H18V10.5C18 9.96957 17.7893 9.46086 17.4142 9.08579C17.0391 8.71071 16.5304 8.5 16 8.5Z" fill="white"/>
<path d="M20 3.5H4C3.20459 3.50079 2.44199 3.81712 1.87956 4.37956C1.31712 4.94199 1.00079 5.70459 1 6.5V12.5C1 12.7652 1.10536 13.0196 1.29289 13.2071C1.48043 13.3946 1.73478 13.5 2 13.5H22C22.2652 13.5 22.5196 13.3946 22.7071 13.2071C22.8946 13.0196 23 12.7652 23 12.5V6.5C22.9992 5.70459 22.6829 4.94199 22.1204 4.37956C21.558 3.81712 20.7954 3.50079 20 3.5ZM18 12.5H6V10.5C6 9.96957 6.21071 9.46086 6.58579 9.08579C6.96086 8.71071 7.46957 8.5 8 8.5H10C10.5304 8.5 11.0391 8.71071 11.4142 9.08579C11.7893 9.46086 12 9.96957 12 10.5C12 9.96957 12.2107 9.46086 12.5858 9.08579C12.9609 8.71071 13.4696 8.5 14 8.5H16C16.5304 8.5 17.0391 8.71071 17.4142 9.08579C17.7893 9.46086 18 9.96957 18 10.5V12.5Z" fill="#6D7582"/>
<path d="M22 20.5H18C17.8354 20.5 17.6734 20.4594 17.5282 20.3818C17.3831 20.3042 17.2593 20.1919 17.168 20.055L15.465 17.5H8.535L6.832 20.055C6.74065 20.1919 6.61692 20.3042 6.47178 20.3818C6.32665 20.4594 6.16459 20.5 6 20.5H2C1.73478 20.5 1.48043 20.3946 1.29289 20.2071C1.10536 20.0196 1 19.7652 1 19.5V12.5C1 12.2348 1.10536 11.9804 1.29289 11.7929C1.48043 11.6054 1.73478 11.5 2 11.5H22C22.2652 11.5 22.5196 11.6054 22.7071 11.7929C22.8946 11.9804 23 12.2348 23 12.5V19.5C23 19.7652 22.8946 20.0196 22.7071 20.2071C22.5196 20.3946 22.2652 20.5 22 20.5Z" fill="#B1B8C0"/>
</svg>
