<svg width="24" height="24" viewBox="0 0 24 24" fill="none" xmlns="http://www.w3.org/2000/svg">
<path d="M12.6971 11.2976L10.4441 9.04462C10.8821 8.2467 11.0466 7.32723 10.9124 6.42694C10.7783 5.52664 10.3528 4.69511 9.70109 4.05962C8.25609 2.61362 4.52709 1.02962 2.77109 2.78562C1.01709 4.54162 2.59909 8.27061 4.04409 9.71561C4.81204 10.4931 5.848 10.9477 6.94009 10.9866L7.07709 10.9886C7.76372 10.987 8.43777 10.8042 9.03109 10.4586L11.2831 12.7116C11.4717 12.8938 11.7243 12.9946 11.9865 12.9923C12.2487 12.99 12.4995 12.8848 12.6849 12.6994C12.8703 12.514 12.9755 12.2632 12.9778 12.001C12.98 11.7388 12.8792 11.4862 12.6971 11.2976ZM21.0001 22.0146C20.8688 22.0147 20.7387 21.9889 20.6174 21.9387C20.496 21.8884 20.3858 21.8146 20.2931 21.7216L14.1131 15.5416C14.0176 15.4494 13.9414 15.339 13.889 15.217C13.8366 15.095 13.809 14.9638 13.8078 14.831C13.8067 14.6982 13.832 14.5666 13.8823 14.4437C13.9325 14.3208 14.0068 14.2091 14.1007 14.1152C14.1946 14.0213 14.3062 13.9471 14.4291 13.8968C14.552 13.8465 14.6837 13.8212 14.8165 13.8224C14.9493 13.8235 15.0805 13.8511 15.2025 13.9035C15.3245 13.9559 15.4348 14.0321 15.5271 14.1276L21.7071 20.3076C21.8469 20.4475 21.9421 20.6256 21.9807 20.8196C22.0192 21.0135 21.9994 21.2146 21.9238 21.3973C21.8481 21.58 21.72 21.7361 21.5555 21.846C21.3911 21.9559 21.1978 22.0146 21.0001 22.0146Z" fill="#2C7EFF"/>
<path d="M21.707 6.51992C21.5195 6.33245 21.2652 6.22713 21 6.22713C20.7348 6.22713 20.4805 6.33245 20.293 6.51992L17.463 9.34892C17.2731 9.53105 17.0201 9.63274 16.757 9.63274C16.4939 9.63274 16.2409 9.53105 16.051 9.34892L19.586 5.81292C19.6837 5.72119 19.7619 5.61077 19.8161 5.48822C19.8703 5.36566 19.8992 5.23346 19.9013 5.09948C19.9034 4.9655 19.8785 4.83247 19.8282 4.70829C19.7779 4.58411 19.7031 4.47131 19.6083 4.3766C19.5135 4.28188 19.4007 4.20718 19.2764 4.15693C19.1522 4.10668 19.0192 4.08191 18.8852 4.08409C18.7512 4.08626 18.6191 4.11534 18.4965 4.1696C18.374 4.22385 18.2636 4.30218 18.172 4.39992L14.636 7.93592C14.449 7.74813 14.344 7.49392 14.344 7.22892C14.344 6.96392 14.449 6.70971 14.636 6.52192L17.464 3.69292C17.5595 3.60067 17.6357 3.49033 17.6881 3.36833C17.7405 3.24632 17.7681 3.1151 17.7692 2.98232C17.7704 2.84954 17.7451 2.71786 17.6948 2.59497C17.6445 2.47207 17.5703 2.36042 17.4764 2.26653C17.3825 2.17263 17.2708 2.09838 17.1479 2.0481C17.025 1.99782 16.8934 1.97252 16.7606 1.97367C16.6278 1.97482 16.4966 2.00241 16.3746 2.05482C16.2526 2.10723 16.1422 2.18341 16.05 2.27892L13.221 5.10692C12.6595 5.67019 12.3442 6.43309 12.3442 7.22842C12.3442 8.02375 12.6595 8.78665 13.221 9.34992H13.222L2.29299 20.2799C2.19531 20.3716 2.11706 20.4821 2.0629 20.6046C2.00873 20.7272 1.97974 20.8594 1.97766 20.9934C1.97558 21.1273 2.00045 21.2604 2.05078 21.3846C2.10112 21.5087 2.1759 21.6215 2.27068 21.7162C2.36546 21.811 2.47832 21.8857 2.60253 21.9359C2.72675 21.9862 2.8598 22.0109 2.99378 22.0088C3.12775 22.0066 3.25993 21.9775 3.38245 21.9232C3.50497 21.869 3.61533 21.7907 3.70699 21.6929L14.637 10.7639C15.1995 11.326 15.9622 11.6418 16.7575 11.6418C17.5527 11.6418 18.3154 11.326 18.878 10.7639L21.707 7.93592C21.8945 7.74839 21.9998 7.49409 21.9998 7.22892C21.9998 6.96376 21.8945 6.70945 21.707 6.52192V6.51992Z" fill="white"/>
</svg>
