<svg width="24" height="24" viewBox="0 0 24 24" fill="none" xmlns="http://www.w3.org/2000/svg">
<path d="M18 2H6C5.20459 2.00079 4.44199 2.31712 3.87956 2.87956C3.31712 3.44199 3.00079 4.20459 3 5V17C3.00079 17.7954 3.31712 18.558 3.87956 19.1204C4.44199 19.6829 5.20459 19.9992 6 20H18C18.7954 19.9992 19.558 19.6829 20.1204 19.1204C20.6829 18.558 20.9992 17.7954 21 17V5C20.9992 4.20459 20.6829 3.44199 20.1204 2.87956C19.558 2.31712 18.7954 2.00079 18 2ZM11 13H6C5.73478 13 5.48043 12.8946 5.29289 12.7071C5.10536 12.5196 5 12.2652 5 12V8C5 7.73478 5.10536 7.48043 5.29289 7.29289C5.48043 7.10536 5.73478 7 6 7H11V13ZM19 12C19 12.2652 18.8946 12.5196 18.7071 12.7071C18.5196 12.8946 18.2652 13 18 13H13V7H18C18.2652 7 18.5196 7.10536 18.7071 7.29289C18.8946 7.48043 19 7.73478 19 8V12Z" fill="#6D7582"/>
<path d="M18 20.0003H17V21.0003C17 21.2655 17.1054 21.5199 17.2929 21.7074C17.4804 21.895 17.7348 22.0003 18 22.0003C18.2652 22.0003 18.5196 21.895 18.7071 21.7074C18.8946 21.5199 19 21.2655 19 21.0003V19.8153C18.6798 19.9339 18.3415 19.9965 18 20.0003ZM6 20.0003C5.647 20.0003 5.314 19.9273 5 19.8153V21.0003C5 21.2655 5.10536 21.5199 5.29289 21.7074C5.48043 21.895 5.73478 22.0003 6 22.0003C6.26522 22.0003 6.51957 21.895 6.70711 21.7074C6.89464 21.5199 7 21.2655 7 21.0003V20.0003H6ZM8 17.0003C7.7336 16.9951 7.47939 16.8877 7.29 16.7003C7.19627 16.6097 7.12216 16.5009 7.07228 16.3804C7.02239 16.26 6.99779 16.1306 7 16.0003C7.002 15.9333 7.008 15.8663 7.02 15.8003C7.03083 15.7376 7.05106 15.6769 7.08 15.6203C7.10191 15.5566 7.13217 15.4961 7.17 15.4403C7.207 15.3873 7.247 15.3373 7.29 15.2903C7.53 15.0543 7.87 14.9533 8.2 15.0203C8.262 15.0303 8.323 15.0503 8.38 15.0803C8.44382 15.102 8.50438 15.1322 8.56 15.1703C8.612 15.2073 8.662 15.2473 8.71 15.2903C8.753 15.3373 8.793 15.3873 8.83 15.4403C8.86783 15.4961 8.89809 15.5566 8.92 15.6203C8.94871 15.677 8.96893 15.7377 8.98 15.8003C9.00835 15.9455 9.00438 16.0951 8.96837 16.2385C8.93235 16.382 8.86518 16.5158 8.77163 16.6303C8.67807 16.7449 8.56044 16.8374 8.42707 16.9014C8.29371 16.9653 8.1479 16.9991 8 17.0003ZM16 17.0003C15.7336 16.9951 15.4794 16.8877 15.29 16.7003C15.1963 16.6097 15.1222 16.5009 15.0723 16.3804C15.0224 16.26 14.9978 16.1306 15 16.0003C15.002 15.9333 15.008 15.8663 15.02 15.8003C15.0308 15.7376 15.0511 15.6769 15.08 15.6203C15.1019 15.5566 15.1322 15.4961 15.17 15.4403C15.207 15.3873 15.247 15.3373 15.29 15.2903C15.53 15.0543 15.87 14.9533 16.2 15.0203C16.262 15.0303 16.323 15.0503 16.38 15.0803C16.4438 15.102 16.5044 15.1322 16.56 15.1703C16.612 15.2073 16.662 15.2473 16.71 15.2903C16.753 15.3373 16.793 15.3873 16.83 15.4403C16.8678 15.4961 16.8981 15.5566 16.92 15.6203C16.9487 15.677 16.9689 15.7377 16.98 15.8003C17.0084 15.9455 17.0044 16.0951 16.9684 16.2385C16.9324 16.382 16.8652 16.5158 16.7716 16.6303C16.6781 16.7449 16.5604 16.8374 16.4271 16.9014C16.2937 16.9653 16.1479 16.9991 16 17.0003Z" fill="#B1B8C0"/>
<path d="M11 7H6C5.73478 7 5.48043 7.10536 5.29289 7.29289C5.10536 7.48043 5 7.73478 5 8V12C5 12.2652 5.10536 12.5196 5.29289 12.7071C5.48043 12.8946 5.73478 13 6 13H11V7ZM18 7H13V13H18C18.2652 13 18.5196 12.8946 18.7071 12.7071C18.8946 12.5196 19 12.2652 19 12V8C19 7.73478 18.8946 7.48043 18.7071 7.29289C18.5196 7.10536 18.2652 7 18 7Z" fill="white"/>
</svg>
