<svg width="24" height="24" viewBox="0 0 24 24" fill="none" xmlns="http://www.w3.org/2000/svg">
<path d="M9.00003 5H3.00003C2.73482 5 2.48046 5.10536 2.29293 5.29289C2.10539 5.48043 2.00003 5.73478 2.00003 6V10C1.99898 10.1307 2.02376 10.2603 2.07295 10.3814C2.12214 10.5025 2.19478 10.6126 2.28668 10.7056C2.37858 10.7985 2.48794 10.8723 2.60848 10.9229C2.72901 10.9734 2.85834 10.9996 2.98903 11C3.25425 11 3.5086 11.1054 3.69614 11.2929C3.88368 11.4804 3.98903 11.7348 3.98903 12C3.98903 12.2652 3.88368 12.5196 3.69614 12.7071C3.5086 12.8946 3.25425 13 2.98903 13C2.85834 13.0004 2.72901 13.0266 2.60848 13.0771C2.48794 13.1277 2.37858 13.2015 2.28668 13.2944C2.19478 13.3874 2.12214 13.4975 2.07295 13.6186C2.02376 13.7397 1.99898 13.8693 2.00003 14V18C2.00003 18.2652 2.10539 18.5196 2.29293 18.7071C2.48046 18.8946 2.73482 19 3.00003 19H9.00003V5Z" fill="#6D7582"/>
<path d="M21 5H9C9.26522 5 9.51957 5.10536 9.70711 5.29289C9.89464 5.48043 10 5.73478 10 6V7C10 7.26504 9.89478 7.51925 9.70746 7.70675C9.52014 7.89426 9.26604 7.99973 9.001 8H9V10C9.26522 10 9.51957 10.1054 9.70711 10.2929C9.89464 10.4804 10 10.7348 10 11V13C10 13.265 9.89478 13.5192 9.70746 13.7068C9.52014 13.8943 9.26604 13.9997 9.001 14H9V16C9.26522 16 9.51957 16.1054 9.70711 16.2929C9.89464 16.4804 10 16.7348 10 17V18C10 18.265 9.89478 18.5192 9.70746 18.7068C9.52014 18.8943 9.26604 18.9997 9.001 19H21.001C21.266 18.9997 21.5201 18.8943 21.7075 18.7068C21.8948 18.5192 22 18.265 22 18V14C22 13.7348 21.8946 13.4804 21.7071 13.2929C21.5196 13.1054 21.2652 13 21 13C20.7348 13 20.4804 12.8946 20.2929 12.7071C20.1054 12.5196 20 12.2652 20 12C20 11.7348 20.1054 11.4804 20.2929 11.2929C20.4804 11.1054 20.7348 11 21 11C21.265 10.9997 21.5201 10.8943 21.7075 10.7068C21.8948 10.5192 22 10.265 22 10V6C22 5.73478 21.8946 5.48043 21.7071 5.29289C21.5196 5.10536 21.2652 5 21 5Z" fill="#B1B8C0"/>
<path d="M9 19C8.73496 19 8.48075 18.8948 8.29325 18.7075C8.10574 18.5201 8.00027 18.266 8 18.001V17.001C8 16.7358 8.10536 16.4814 8.29289 16.2939C8.48043 16.1064 8.73478 16.001 9 16.001C9.26522 16.001 9.51957 16.1064 9.70711 16.2939C9.89464 16.4814 10 16.7358 10 17.001V18.001C10 18.266 9.89478 18.5202 9.70746 18.7078C9.52014 18.8953 9.26604 19.0007 9.001 19.001L9 19ZM9 8C8.73496 8 8.48075 7.89478 8.29325 7.70746C8.10574 7.52014 8.00027 7.26604 8 7.001V6C8 5.73478 8.10536 5.48043 8.29289 5.29289C8.48043 5.10536 8.73478 5 9 5C9.26522 5 9.51957 5.10536 9.70711 5.29289C9.89464 5.48043 10 5.73478 10 6V7C10 7.26504 9.89478 7.51925 9.70746 7.70675C9.52014 7.89426 9.26604 7.99973 9.001 8H9ZM9 14C8.73496 14 8.48075 13.8948 8.29325 13.7075C8.10574 13.5201 8.00027 13.266 8 13.001V11.001C8 10.7358 8.10536 10.4814 8.29289 10.2939C8.48043 10.1064 8.73478 10.001 9 10.001C9.26522 10.001 9.51957 10.1064 9.70711 10.2939C9.89464 10.4814 10 10.7358 10 11.001V13.001C10 13.266 9.89478 13.5202 9.70746 13.7078C9.52014 13.8953 9.26604 14.0007 9.001 14.001H9V14Z" fill="white"/>
</svg>
