<svg width="24" height="24" viewBox="0 0 24 24" fill="none" xmlns="http://www.w3.org/2000/svg">
<path d="M17.2348 3.81829L13.9928 7.06029L7.50582 4.89729C7.32951 4.83848 7.14029 4.82997 6.95942 4.87272C6.77854 4.91546 6.61315 5.00777 6.48182 5.13929L5.58182 6.03929C5.46744 6.15352 5.38246 6.29377 5.33416 6.44804C5.28585 6.6023 5.27567 6.76598 5.30447 6.92504C5.33328 7.0841 5.40021 7.23381 5.49954 7.36134C5.59888 7.48887 5.72765 7.59042 5.87482 7.65729L11.0448 10.0073L7.42882 13.6243C7.2804 13.7726 7.08909 13.8704 6.88199 13.904C6.67489 13.9375 6.46247 13.9051 6.27482 13.8113L5.20482 13.2773C5.01728 13.1837 4.80507 13.1514 4.59818 13.1849C4.39128 13.2185 4.20016 13.3162 4.05182 13.4643L3.49982 14.0163C3.31235 14.2038 3.20703 14.4581 3.20703 14.7233C3.20703 14.9885 3.31235 15.2428 3.49982 15.4303L8.56982 20.5003C8.75735 20.6878 9.01165 20.7931 9.27682 20.7931C9.54198 20.7931 9.79629 20.6878 9.98382 20.5003L10.5358 19.9483C10.6841 19.7999 10.782 19.6086 10.8155 19.4015C10.8491 19.1944 10.8166 18.9819 10.7228 18.7943L10.1888 17.7253C10.095 17.5376 10.0626 17.3252 10.0961 17.1181C10.1297 16.911 10.2275 16.7197 10.3758 16.5713L13.9928 12.9543L16.3428 18.1243C16.4096 18.2715 16.5111 18.4004 16.6385 18.4998C16.766 18.5993 16.9157 18.6663 17.0748 18.6952C17.2339 18.7241 17.3976 18.714 17.5519 18.6658C17.7062 18.6176 17.8465 18.5326 17.9608 18.4183L18.8608 17.5183C18.9923 17.387 19.0846 17.2216 19.1274 17.0407C19.1701 16.8598 19.1616 16.6706 19.1028 16.4943L16.9398 10.0073L20.1818 6.76529C20.5726 6.37447 20.7921 5.84444 20.7921 5.29179C20.7921 4.73913 20.5726 4.2091 20.1818 3.81829C19.791 3.42753 19.261 3.20801 18.7083 3.20801C18.1557 3.20801 17.6256 3.42753 17.2348 3.81829Z" fill="#2C7EFF"/>
</svg>
