<svg width="48" height="48" viewBox="0 0 48 48" fill="none" xmlns="http://www.w3.org/2000/svg">
<path d="M0 16C0 7.16344 7.16344 0 16 0H32C40.8366 0 48 7.16344 48 16V32C48 40.8366 40.8366 48 32 48H16C7.16344 48 0 40.8366 0 32V16Z" fill="#FAFAFB"/>
<path fill-rule="evenodd" clip-rule="evenodd" d="M24.9005 11.9995V11.0995H23.1005V11.9995V15.0995H20.0005H19.1005V16.8995H20.0005H23.1005V19.9995V20.8995H24.9005V19.9995V16.8995H28.0005H28.9004V15.0995H28.0005H24.9005V11.9995Z" fill="#6D7582"/>
<path fill-rule="evenodd" clip-rule="evenodd" d="M24.0005 8.14951C19.665 8.14951 16.1505 11.6641 16.1505 15.9995C16.1505 20.3349 19.665 23.8495 24.0005 23.8495C25.3617 23.8495 26.6396 23.5038 27.7537 22.896C27.9578 22.7847 28.1971 22.7566 28.4215 22.8178L30.5359 23.3945C30.9957 23.5199 31.2805 23.5966 31.4896 23.6336C31.564 23.6467 31.6111 23.6511 31.6375 23.6526C31.6434 23.6478 31.6488 23.6425 31.6535 23.6365C31.652 23.6101 31.6476 23.563 31.6345 23.4887C31.5976 23.2796 31.5208 22.9948 31.3954 22.535L30.8188 20.4205C30.7576 20.1962 30.7856 19.9569 30.897 19.7527C31.5047 18.6386 31.8504 17.3608 31.8504 15.9995C31.8504 11.6641 28.3359 8.14951 24.0005 8.14951ZM14.3505 15.9995C14.3505 10.67 18.6709 6.34951 24.0005 6.34951C29.33 6.34951 33.6504 10.67 33.6504 15.9995C33.6504 17.5379 33.2898 18.9943 32.648 20.2867L33.1423 22.0992C33.2542 22.5094 33.354 22.8752 33.4071 23.1757C33.4608 23.4803 33.4975 23.8664 33.3502 24.252C33.1573 24.7573 32.7582 25.1564 32.253 25.3493C31.8673 25.4966 31.4812 25.4599 31.1767 25.4061C30.8761 25.3531 30.5103 25.2533 30.1002 25.1414L28.2876 24.6471C26.9952 25.2889 25.5388 25.6495 24.0005 25.6495C18.6709 25.6495 14.3505 21.3291 14.3505 15.9995Z" fill="#6D7582"/>
<path d="M18.9688 31.5977V34.3516H20.1992V30.6367H21.4414V40.5273H20.1992V35.4062H18.9688V38.3125H14.8086V31.5977H18.9688ZM16.0273 32.6289V37.2812H17.75V32.6289H16.0273ZM23.6211 30.4492V41.043H22.3672V30.4492H23.6211ZM34.5312 38.6875V39.7539H24.8516V38.6875H29.0234V36.3789H25.918V31.2695H33.418V36.3789H30.3125V38.6875H34.5312ZM27.1953 32.3125V35.3594H32.1289V32.3125H27.1953Z" fill="#6D7582"/>
</svg>
