<svg width="24" height="24" viewBox="0 0 24 24" fill="none" xmlns="http://www.w3.org/2000/svg">
<path d="M7.243 21.9998H3C2.73478 21.9998 2.48043 21.8944 2.29289 21.7069C2.10536 21.5194 2 21.265 2 20.9998V16.7568C2.00006 16.4916 2.10545 16.2373 2.293 16.0498L16.053 2.29279C16.2405 2.10532 16.4948 2 16.76 2C17.0252 2 17.2795 2.10532 17.467 2.29279L21.707 6.53279C21.8945 6.72031 21.9998 6.97462 21.9998 7.23979C21.9998 7.50495 21.8945 7.75926 21.707 7.94679L7.95 21.7068C7.76251 21.8943 7.50819 21.9997 7.243 21.9998Z" fill="#2C7EFF"/>
<path d="M21.7066 6.53279L17.4666 2.29279C17.2791 2.10532 17.0248 2 16.7596 2C16.4945 2 16.2402 2.10532 16.0526 2.29279L12.5146 5.82979L18.1696 11.4828L21.7066 7.94679C21.8941 7.75926 21.9994 7.50495 21.9994 7.23979C21.9994 6.97462 21.8941 6.72031 21.7066 6.53279Z" fill="white"/>
</svg>
